<?xml version="1.0" encoding="utf-8"?>
<!-- Generator: Adobe Illustrator 23.0.2, SVG Export Plug-In . SVG Version: 6.00 Build 0)  -->
<svg version="1.1" id="Layer_1" xmlns="http://www.w3.org/2000/svg" xmlns:xlink="http://www.w3.org/1999/xlink" x="0px" y="0px"
	 viewBox="0 0 345 65" style="enable-background:new 0 0 345 65;" xml:space="preserve">
<style type="text/css">
	.st0{fill:#DA1F26;}
	.st1{enable-background:new    ;}
	.st2{fill:#FFFFFF;}
</style>
<path class="st0" d="M86.3,31.1v2.8c0,0.2-0.1,0.3-0.1,0.5c-0.1,1.2-0.2,2.5-0.4,3.7c-0.7,4-2.1,7.7-4.2,11.1
	c-3.2,5.2-7.6,9.2-13.1,11.9c-3.2,1.6-6.6,2.6-10.1,3c-0.8,0.1-1.6,0.2-2.3,0.3H25.7c-0.2,0-0.3-0.1-0.5-0.1c-3.1-0.2-6-0.9-8.8-2.1
	c-6.1-2.7-10.7-7-13.6-13c-1.3-2.6-2.2-5.5-2.5-8.4c-0.1-0.7-0.2-1.4-0.3-2.1v-2.8c0-0.2,0.1-0.3,0.1-0.5c0.2-2.6,0.7-5.2,1.7-7.7
	C4.3,21.1,8.8,16.2,15.2,13c3.3-1.7,6.8-2.5,10.5-2.7c1.8-0.1,3.6,0,5.4,0.2c0.2,0,0.4-0.1,0.5-0.2c2.6-2.6,5.5-4.8,8.8-6.4
	c3.2-1.6,6.6-2.6,10.2-3c0.8-0.1,1.7-0.2,2.5-0.3h2.6c0.2,0,0.3,0.1,0.5,0.1c1.3,0.1,2.6,0.2,3.8,0.5c4,0.7,7.6,2.1,11.1,4.2
	C76.3,8.6,80.3,13,83,18.5c1.6,3.2,2.6,6.6,3,10.1C86.1,29.5,86.2,30.3,86.3,31.1 M38,12.7c0.1,0.1,0.1,0.1,0.1,0.1
	c1.8,0.9,3.5,1.9,5.1,3.1c0.1,0.1,0.4,0,0.5,0c4.4-2.8,9.2-3.7,14.3-2.8c5,0.9,9.1,3.4,12.2,7.4c3.5,4.5,4.9,9.7,3.9,15.3
	c-0.7,3.8-2.2,7.2-4.8,10.1c-4.7,5.2-10.7,7.4-17.7,6.5c-4.3-0.6-8-2.4-11.1-5.5c-3.9-4-7.9-7.9-11.9-11.9c-0.5-0.5-1.1-1-1.9-1
	c-1.3-0.2-2.5,0.5-3.1,1.7c-0.5,1.1-0.4,2.3,0.7,3.4c4.4,4.3,8.8,8.7,13.2,13c0.8,0.7,1.6,1.4,2.4,2.1c3.2,2.3,6.9,3.6,10.8,4.2
	c3.1,0.4,6.1,0.3,9.2-0.4c5.8-1.3,10.6-4.3,14.4-8.8c3.1-3.8,5-8.1,5.7-13c0.4-2.8,0.3-5.6-0.2-8.3c-0.9-4.5-2.8-8.5-5.8-11.9
	c-5.8-6.5-13.1-9.4-21.8-8.8c-3.3,0.2-6.5,1.2-9.5,2.8C40.9,10.5,39.4,11.5,38,12.7 M35.9,58.3c-0.1-0.1-0.2-0.2-0.4-0.3
	c-1.8-1.7-3.6-3.4-5.4-5.1c-0.3-0.3-0.7-0.5-1.2-0.5c-1.8,0-3.6,0.1-5.4-0.4c-8.8-2-14-11.6-10.7-20.1c2.6-6.7,9.7-10.7,16.7-9.5
	c3.1,0.6,5.9,1.9,8.2,4.2c2.8,2.9,5.6,5.6,8.4,8.5c0.6,0.6,1.4,0.9,2.2,0.8c1.1-0.2,2-0.7,2.5-1.8c0.4-1.1,0.2-2.1-0.6-3
	c-2.9-3-5.8-6-8.9-8.9c-5.9-5.5-12.9-7.2-20.6-4.8C10.4,20.6,4.3,31.3,6.7,41.9c2.2,9.6,10.6,16.4,20.5,16.4c2.8,0,5.5,0,8.3,0
	C35.6,58.3,35.7,58.3,35.9,58.3"/>
<g class="st1">
	<path class="st2" d="M136.3,40.3h-15.1l-4.3,12.5c-0.1,0.3-0.3,0.4-0.5,0.4h-4.5c-0.3,0-0.4-0.2-0.4-0.5l13.3-37.1
		c0.2-0.9,0.3-1.8,0.4-2.7c0-0.2,0.1-0.3,0.3-0.3h6.3c0.2,0,0.3,0.1,0.4,0.2l14.3,39.8c0.1,0.3,0,0.5-0.2,0.5h-5
		c-0.2,0-0.4-0.1-0.5-0.4L136.3,40.3z M122.4,36h12.7c0-0.1-1-2.8-2.9-8.3c-1.9-5.4-3-9-3.5-10.6h-0.1
		C128.2,18.9,126.1,25.2,122.4,36z"/>
	<path class="st2" d="M162.9,53.8c-4.4,0-8-1.3-10.8-3.9c-2.8-2.6-4.2-6.2-4.2-11c0-4.5,1.5-8.2,4.5-11.1c3-2.9,6.8-4.3,11.6-4.3
		c2,0,3.6,0.2,4.7,0.6V9.7c0-0.2,0.1-0.4,0.4-0.4h4.8c0.2,0,0.3,0.1,0.3,0.4v38c0,1,0,2,0.1,3.1c0,0.2-0.1,0.4-0.3,0.5
		C170.6,53,166.9,53.8,162.9,53.8z M168.7,48.7V28.6c-1.2-0.7-2.8-1-4.8-1c-3.2,0-5.8,1-7.6,3.1c-1.9,2-2.8,4.7-2.8,8.1
		c0,3.7,1,6.4,2.9,8.2c1.9,1.8,4.3,2.7,7,2.7C165.7,49.6,167.5,49.3,168.7,48.7z"/>
	<path class="st2" d="M193,23.6c4.3,0,7.7,1.4,10.2,4.2c2.5,2.8,3.8,6.4,3.8,10.8c0,4.6-1.3,8.3-3.9,11.1c-2.6,2.8-6,4.1-10.2,4.1
		c-4.6,0-8.1-1.5-10.6-4.5c-2.4-3-3.6-6.5-3.6-10.7c0-4.4,1.3-8,4-10.8C185.4,25,188.8,23.6,193,23.6z M192.8,27.6
		c-2.6,0-4.6,1-6.2,3s-2.3,4.7-2.3,8c0,3.3,0.8,6,2.3,8.1c1.6,2.1,3.7,3.1,6.5,3.1c2.3,0,4.3-0.9,6-2.8c1.7-1.9,2.5-4.6,2.5-8.3
		c0-3.3-0.7-5.9-2.2-8C197.8,28.6,195.7,27.6,192.8,27.6z"/>
	<path class="st2" d="M212.1,9.3h4.6c0.3,0,0.4,0.1,0.4,0.4v15.5c2.2-1,4.6-1.6,7.1-1.6c4.1,0,7.4,1.3,9.9,4
		c2.5,2.7,3.7,6.1,3.7,10.4c0,4.9-1.5,8.8-4.5,11.6c-3,2.9-6.5,4.3-10.7,4.3c-4.1,0-7.7-0.8-10.7-2.3c-0.2-0.1-0.4-0.3-0.4-0.5V9.7
		C211.7,9.4,211.8,9.3,212.1,9.3z M232.4,38.4c0-3.3-0.8-5.8-2.5-7.7c-1.6-1.9-3.9-2.8-6.7-2.8c-2.3,0-4.3,0.5-6,1.4v19.3
		c1.5,0.9,3.5,1.3,5.9,1.3c2.6,0,4.8-1,6.6-3.1C231.5,44.7,232.4,41.9,232.4,38.4z"/>
	<path class="st2" d="M259.6,39.2h-12.9c-0.1,3.1,0.7,5.6,2.4,7.5c1.7,1.9,4.2,2.8,7.4,2.8c2.9,0,5.4-0.5,7.5-1.6
		c0.2-0.2,0.4-0.1,0.4,0.2v3.3c0,0.3-0.1,0.5-0.3,0.5c-2.3,1.2-5.2,1.8-8.6,1.8c-4.9,0-8.5-1.4-10.8-4.3c-2.3-2.9-3.5-6.4-3.5-10.6
		c0-4.4,1.2-8,3.6-11c2.4-2.9,5.7-4.4,9.8-4.4c4,0,6.9,1.2,8.9,3.6c1.9,2.4,2.9,5.2,2.9,8.3c0,1.4-0.1,2.4-0.2,3
		c-0.1,0.3-0.2,0.4-0.5,0.5C264.9,39.1,262.9,39.2,259.6,39.2z M246.7,35.6h10.7c2.3,0,3.6,0,3.8-0.1c0-0.1,0.1-0.4,0.1-1
		c0-1.8-0.5-3.4-1.6-4.9c-1.1-1.5-2.8-2.3-5.3-2.3c-2.3,0-4.1,0.8-5.4,2.3C247.7,31.3,247,33.3,246.7,35.6z"/>
	<path class="st2" d="M313,48.2v3.6c0,0.3-0.1,0.5-0.4,0.6c-2.2,1-5.2,1.4-9,1.4c-2.7,0-5.2-0.4-7.5-1.2c-2.3-0.8-4.5-2-6.5-3.6
		c-2-1.6-3.6-3.8-4.8-6.6c-1.2-2.8-1.7-6-1.7-9.7c0-6.1,1.9-11.1,5.8-14.9c3.9-3.8,9-5.7,15.3-5.7c4.1,0,7,0.5,8.9,1.4
		c0.2,0.1,0.3,0.3,0.3,0.5v4c0,0.4-0.1,0.5-0.4,0.3c-2-1.2-4.9-1.9-8.7-1.9c-4.7,0-8.4,1.4-11.3,4.3c-2.9,2.9-4.3,6.8-4.3,11.8
		c0,3.1,0.5,5.9,1.5,8.2c1,2.3,2.4,4.1,4,5.2s3.3,2,5,2.6c1.7,0.5,3.4,0.8,5.2,0.8c3.1,0,5.9-0.5,8.2-1.4
		C312.9,47.9,313,47.9,313,48.2z"/>
	<path class="st2" d="M344.7,48.2v3.6c0,0.3-0.1,0.5-0.4,0.6c-2.2,1-5.2,1.4-9,1.4c-2.7,0-5.2-0.4-7.5-1.2s-4.5-2-6.5-3.6
		c-2-1.6-3.6-3.8-4.8-6.6c-1.2-2.8-1.7-6-1.7-9.7c0-6.1,1.9-11.1,5.8-14.9c3.9-3.8,9-5.7,15.3-5.7c4.1,0,7,0.5,8.9,1.4
		c0.2,0.1,0.3,0.3,0.3,0.5v4c0,0.4-0.1,0.5-0.4,0.3c-2-1.2-4.9-1.9-8.7-1.9c-4.7,0-8.4,1.4-11.3,4.3c-2.9,2.9-4.3,6.8-4.3,11.8
		c0,3.1,0.5,5.9,1.5,8.2c1,2.3,2.4,4.1,4,5.2c1.6,1.2,3.3,2,5,2.6c1.7,0.5,3.4,0.8,5.2,0.8c3.1,0,5.9-0.5,8.2-1.4
		C344.6,47.9,344.7,47.9,344.7,48.2z"/>
</g>
</svg>
