<?xml version="1.0" encoding="utf-8"?>
<!-- Generator: Adobe Illustrator 23.0.2, SVG Export Plug-In . SVG Version: 6.00 Build 0)  -->
<svg version="1.1" id="Layer_1" xmlns="http://www.w3.org/2000/svg" xmlns:xlink="http://www.w3.org/1999/xlink" x="0px" y="0px"
	 viewBox="0 0 621 105" style="enable-background:new 0 0 621 105;" xml:space="preserve">
<style type="text/css">
	.st0{fill:#FFFFFF;}
	.st1{fill:#00A15E;}
	.st2{fill:#FBCD48;}
	.st3{fill:#039056;}
	.st4{fill:#0D975B;}
	.st5{fill:#F9C940;}
	.st6{fill:#E1B63A;}
	.st7{fill:#E7B732;}
	.st8{fill:#406AB2;}
	.st9{fill:#4587F4;}
	.st10{fill:#446DB3;}
	.st11{fill:url(#SVGID_1_);}
</style>
<g>
	<g>
		<g>
			<path class="st0" d="M255.6,62.1c0-7.9-5.7-13.3-12.4-13.3c-6.6,0-12.4,5.4-12.4,13.3c0,7.8,5.7,13.3,12.4,13.3
				C249.9,75.4,255.6,69.9,255.6,62.1z M265.3,62.1c0,12.6-9.9,21.9-22,21.9c-12.1,0-22-9.3-22-21.9c0-12.7,9.9-21.9,22-21.9
				C255.4,40.2,265.3,49.4,265.3,62.1z"/>
			<path class="st0" d="M303,62.1c0-7.9-5.7-13.3-12.4-13.3c-6.6,0-12.4,5.4-12.4,13.3c0,7.8,5.7,13.3,12.4,13.3
				C297.3,75.4,303,69.9,303,62.1z M312.7,62.1c0,12.6-9.9,21.9-22,21.9c-12.1,0-22-9.3-22-21.9c0-12.7,9.9-21.9,22-21.9
				C302.8,40.2,312.7,49.4,312.7,62.1z"/>
			<path class="st0" d="M349.6,62.2c0-7.7-5.1-13.4-11.7-13.4c-6.6,0-12.2,5.6-12.2,13.4c0,7.6,5.6,13.2,12.2,13.2
				C344.5,75.4,349.6,69.8,349.6,62.2z M358.1,41.5v39.3c0,16.2-9.5,22.8-20.8,22.8c-10.6,0-17-7.1-19.4-12.9l8.4-3.5
				c1.5,3.6,5.1,7.8,11,7.8c7.2,0,11.7-4.5,11.7-12.8V79h-0.3c-2.2,2.7-6.3,5-11.5,5c-11,0-21-9.5-21-21.8c0-12.4,10-22,21-22
				c5.2,0,9.4,2.3,11.5,4.9h0.3v-3.6L358.1,41.5L358.1,41.5z"/>
			<rect x="363.8" y="18.5" class="st0" width="9.4" height="64.2"/>
			<path class="st0" d="M386.7,61.4l19.6-8.1c-1.1-2.7-4.3-4.6-8.1-4.6C393.3,48.7,386.5,53,386.7,61.4z M409.7,69.3l7.5,5
				c-2.4,3.6-8.2,9.7-18.2,9.7c-12.4,0-21.7-9.6-21.7-21.9c0-13,9.4-21.9,20.7-21.9c11.4,0,16.9,9,18.7,13.9l1,2.5l-29.3,12.1
				c2.2,4.4,5.7,6.6,10.6,6.6C403.8,75.4,407.2,73,409.7,69.3z"/>
			<path class="st0" d="M185.8,56.4v-9.3h31.3c0.3,1.6,0.5,3.5,0.5,5.6c0,7-1.9,15.6-8,21.7c-6,6.2-13.6,9.5-23.7,9.5
				c-18.7,0-34.5-15.3-34.5-34s15.8-34,34.5-34c10.4,0,17.8,4.1,23.3,9.4l-6.6,6.6c-4-3.7-9.4-6.6-16.8-6.6
				c-13.7,0-24.4,11-24.4,24.7s10.7,24.7,24.4,24.7c8.9,0,13.9-3.6,17.2-6.8c2.6-2.6,4.4-6.4,5-11.5L185.8,56.4z"/>
		</g>
		<g>
			<path class="st0" d="M440.4,82.7V23.4h18.1c9,0,16.3,2.7,21.8,8.2c5.5,5.5,8.2,12.6,8.2,21.4c0,8.9-2.7,16-8.2,21.5
				c-5.5,5.4-12.8,8.1-21.8,8.1L440.4,82.7L440.4,82.7z M448,30.7v44.7h10.5c6.9,0,12.3-2,16.3-5.9c4-3.9,6-9.4,6-16.4
				c0-6.9-2-12.4-6-16.4c-4-4-9.4-6-16.3-6C458.5,30.7,448,30.7,448,30.7z"/>
			<path class="st0" d="M502.2,82.7h-7.6V42.1h7.3v6.6h0.3c0.8-2.2,2.4-4,4.8-5.5c2.4-1.5,4.8-2.3,7.1-2.3c2.2,0,4.1,0.3,5.6,1
				l-2.3,7.4c-0.9-0.4-2.4-0.6-4.5-0.6c-2.9,0-5.4,1.2-7.5,3.5c-2.1,2.3-3.2,5-3.2,8.1V82.7z"/>
			<path class="st0" d="M534.4,28.2c0,1.5-0.5,2.8-1.6,3.8c-1,1-2.3,1.6-3.8,1.6c-1.5,0-2.8-0.5-3.8-1.6c-1-1-1.6-2.3-1.6-3.8
				c0-1.5,0.5-2.8,1.6-3.8c1-1,2.3-1.6,3.8-1.6c1.5,0,2.8,0.5,3.8,1.6C533.9,25.4,534.4,26.7,534.4,28.2z M532.9,42.1v40.5h-7.6
				V42.1H532.9z"/>
			<path class="st0" d="M562.5,82.7h-7.6l-16.4-40.5h8.3l11.9,31.4h0.2l12.1-31.4h8.1L562.5,82.7z"/>
			<path class="st0" d="M600.9,84c-6,0-10.9-2-14.7-6.1c-3.9-4.1-5.8-9.2-5.8-15.5c0-6.2,1.9-11.3,5.6-15.4
				c3.7-4.1,8.5-6.2,14.4-6.2c6,0,10.8,1.9,14.3,5.8c3.6,3.9,5.3,9.3,5.3,16.3l-0.1,0.8h-31.8c0.1,4,1.4,7.2,4,9.6
				c2.5,2.4,5.6,3.6,9.1,3.6c4.9,0,8.7-2.4,11.4-7.3l6.8,3.3c-1.8,3.4-4.3,6.1-7.6,8S605,84,600.9,84z M588.8,57.5H612
				c-0.2-2.8-1.4-5.1-3.4-7c-2.1-1.8-4.8-2.8-8.3-2.8c-2.9,0-5.3,0.9-7.4,2.6C590.8,52.2,589.4,54.5,588.8,57.5z"/>
		</g>
	</g>
	<g>
		<g id="_0ba25eff_1_">
			<path class="st1" d="M39.6,1.1l0.1,0l0,0.1l-0.1,0L39.6,1.1z"/>
			<path class="st1" d="M39.2,1.8c0.1-0.1,0.3-0.4,0.4-0.5l0.2,0c0.1,1.5,0.6,2.9,0.9,4.3c1.4,6.2,2.8,12.5,4.3,18.7
				c1,4.3,2,8.5,2.9,12.8c0.8,2.7,1.2,5.4,1.9,8c0.5,2.5,1.2,4.9,1.6,7.4c-0.2,0.3-0.3,0.5-0.5,0.8c0,0.1-0.1,0.2-0.2,0.3l-0.1,0.1
				c0,0,0,0.1,0,0.1c-0.1,0.2-0.3,0.5-0.4,0.7c0,0-0.1,0.1-0.1,0.1L50,54.9c0,0-0.1,0.1-0.1,0.1l-0.2,0.3c0,0,0,0.1,0,0.1l-0.2,0.4
				c0,0-0.1,0.1-0.1,0.1c0,0-0.1,0.1-0.1,0.2L49,56.5c0,0-0.1,0.1-0.1,0.1l-0.1,0.2c0,0-0.1,0.1-0.1,0.2c-0.1,0.2-0.3,0.5-0.4,0.6
				c0,0-0.1,0.1-0.1,0.1l-0.1,0.2c0,0-0.1,0.1-0.1,0.2c-0.1,0.2-0.3,0.5-0.3,0.6c0,0-0.1,0.1-0.1,0.1l-0.2,0.3c0,0,0,0.1-0.1,0.1
				l-0.2,0.3l-0.1,0.1c-0.1,0.2-0.3,0.5-0.4,0.6c0,0-0.1,0.1-0.1,0.1l-0.2,0.3c0,0,0,0.1-0.1,0.1l-0.2,0.3c0,0-0.1,0.1-0.1,0.1
				c-0.1,0.2-0.3,0.5-0.4,0.7c0,0-0.1,0.1-0.1,0.1l-0.1,0.2c0,0-0.1,0.1-0.1,0.2c-0.1,0.2-0.3,0.5-0.4,0.6c0,0,0,0.1-0.1,0.1
				l-0.2,0.3c0,0,0,0.1-0.1,0.1l-0.2,0.3c0,0,0,0.1-0.1,0.1c-0.1,0.2-0.3,0.5-0.4,0.6c0,0-0.1,0.1-0.1,0.2l-0.1,0.3
				c0,0-0.1,0.1-0.1,0.1l-0.2,0.4c0,0-0.1,0.1-0.1,0.1c0,0-0.1,0.1-0.1,0.1c-0.4,0.7-0.7,1.3-1.2,2c-2.5,4-4.8,8.2-7.2,12.3
				c-3.9,6.7-7.8,13.5-11.7,20.2c-0.6,1-1.2,2.1-1.8,3.2l-0.1,0.1c-0.9-1.3-1.7-2.8-2.5-4.2C15.2,93,11.3,86.2,7.4,79.5
				C5.2,75.7,3,71.9,0.9,68.1c8.3-14.4,16.7-28.8,25-43.2c0,0,0,0,0-0.1l0.2-0.4c0,0,0,0,0-0.1l0.2-0.4c0,0,0.1-0.1,0.1-0.1
				c0,0,0.1-0.1,0.1-0.2l0.2-0.4l0.1-0.1l0.2-0.3c0,0,0.1-0.1,0.1-0.2c0.1-0.1,0.3-0.4,0.3-0.5c0,0,0-0.1,0-0.2l0.2-0.4l0-0.1
				l0.2-0.4c0,0,0.1-0.1,0.1-0.2c0,0,0.1-0.1,0.1-0.2l0.2-0.3c0,0,0.1-0.1,0.1-0.1l0.2-0.3c0,0,0.1-0.1,0.1-0.1
				c0.1-0.2,0.3-0.5,0.4-0.6l0.1-0.1l0.2-0.3c0,0,0-0.1,0.1-0.1l0.2-0.4c0,0,0.1-0.1,0.1-0.2l0.2-0.2c0,0,0.1-0.1,0.1-0.2
				c0,0,0.1-0.1,0.1-0.2l0.1-0.2c0-0.1,0.1-0.3,0.2-0.4l0.1-0.2c0,0,0.1-0.1,0.1-0.1c0.1-0.1,0.3-0.2,0.3-0.3l0-0.3
				c0,0,0-0.1,0.1-0.1l0.2-0.4c0,0,0-0.1,0.1-0.1l0.2-0.3c0,0,0.1-0.1,0.1-0.2c0.1-0.1,0.2-0.4,0.3-0.5c0,0,0.1-0.1,0.1-0.2l0.1-0.3
				c0-0.1,0.1-0.2,0.2-0.3l0.2-0.2l0.1-0.2c0,0,0.1-0.1,0.1-0.2l0.1-0.2c0-0.1,0.1-0.2,0.1-0.2l0.2-0.4c0,0,0.1-0.1,0.1-0.2l0.2-0.2
				c0,0,0.1-0.1,0.1-0.2c0,0,0.1-0.1,0.1-0.2l0.1-0.2c0-0.1,0.1-0.2,0.1-0.3l0.2-0.3c0,0,0.1-0.1,0.1-0.2c0.1-0.1,0.3-0.4,0.3-0.5
				c0,0,0-0.1,0-0.2l0.2-0.4c0,0,0,0,0-0.1L35,9.1C35,9,35,9,35.1,8.9c0,0,0.1-0.1,0.1-0.2l0.2-0.4c0,0,0,0,0-0.1l0.2-0.4
				c0,0,0,0,0-0.1l0.2-0.4c0,0,0.1-0.1,0.1-0.1c0,0,0.1-0.1,0.1-0.2l0.2-0.4c0,0,0-0.1,0.1-0.1l0.2-0.3c0,0,0.1-0.1,0.1-0.2
				C36.8,6,36.9,5.8,37,5.6c0,0,0-0.1,0-0.2l0.2-0.4c0,0,0.1-0.1,0.1-0.1l0.2-0.3c0,0,0.1-0.1,0.1-0.2c0.1-0.1,0.2-0.4,0.3-0.5
				c0,0,0-0.1,0-0.1l0.2-0.4c0,0,0-0.1,0-0.1L38.5,3c0,0,0.1-0.1,0.1-0.1c0,0,0.1-0.1,0.1-0.2l0.2-0.4c0,0,0-0.1,0-0.1L39.2,1.8
				C39.1,1.9,39.2,1.8,39.2,1.8z"/>
		</g>
		<g id="_fccd48ff_1_">
			<path class="st2" d="M98.8,35.6c0.1-0.4,0.1-0.8,0-1.2C98.9,34.8,98.9,35.2,98.8,35.6z"/>
		</g>
		<g id="_089156ff_1_">
			<path class="st3" d="M39.5,1.2l0.1,0l0,0.1l-0.2,0L39.5,1.2z"/>
			<path class="st1" d="M39.7,1.3c0.5,0.7,0.9,1.4,1.3,2.1c6.5,11.2,12.9,22.4,19.4,33.6c-3,5.2-6,10.4-9,15.6
				c-0.4-2.5-1.2-4.9-1.6-7.4c-0.7-2.7-1.2-5.4-1.9-8c-0.9-4.3-2-8.5-2.9-12.8c-1.5-6.2-2.9-12.5-4.3-18.7
				C40.2,4.2,39.8,2.7,39.7,1.3z"/>
			<path class="st3" d="M39.1,1.9C39.1,1.9,39.2,1.8,39.1,1.9C39.2,1.8,39.1,1.9,39.1,1.9z"/>
			<path class="st3" d="M38.9,2.3C38.9,2.3,38.9,2.3,38.9,2.3C38.9,2.3,38.9,2.3,38.9,2.3z"/>
			<path class="st3" d="M38.6,2.9c0,0,0.1-0.1,0.1-0.2C38.6,2.8,38.6,2.8,38.6,2.9z"/>
			<path class="st3" d="M38.5,3c0,0,0.1-0.1,0.1-0.1C38.5,2.9,38.5,3,38.5,3z"/>
			<path class="st3" d="M38.2,3.5C38.2,3.5,38.2,3.4,38.2,3.5C38.2,3.4,38.2,3.5,38.2,3.5z"/>
			<path class="st3" d="M37.9,4c0,0,0-0.1,0-0.1C38,3.9,38,4,37.9,4z"/>
			<path class="st3" d="M37.6,4.5c0.1-0.1,0.2-0.4,0.3-0.5C37.9,4.1,37.7,4.4,37.6,4.5z"/>
			<path class="st3" d="M37.5,4.7c0,0,0.1-0.1,0.1-0.2C37.6,4.6,37.5,4.7,37.5,4.7z"/>
			<path class="st3" d="M37.3,5.1c0,0,0.1-0.1,0.1-0.1C37.3,5,37.3,5.1,37.3,5.1z"/>
			<path class="st3" d="M37,5.6c0,0,0-0.1,0-0.2C37,5.5,37,5.6,37,5.6z"/>
			<path class="st3" d="M36.7,6.2C36.8,6,36.9,5.8,37,5.6C36.9,5.8,36.8,6,36.7,6.2z"/>
			<path class="st3" d="M36.6,6.3c0,0,0.1-0.1,0.1-0.2C36.7,6.2,36.6,6.3,36.6,6.3z"/>
			<path class="st3" d="M36.3,6.7C36.3,6.7,36.4,6.7,36.3,6.7C36.4,6.7,36.3,6.7,36.3,6.7z"/>
			<path class="st3" d="M36,7.3c0,0,0.1-0.1,0.1-0.2C36.1,7.2,36,7.3,36,7.3z"/>
			<path class="st3" d="M35.9,7.4c0,0,0.1-0.1,0.1-0.1C36,7.3,35.9,7.4,35.9,7.4z"/>
			<path class="st3" d="M35.6,7.9C35.7,7.9,35.7,7.9,35.6,7.9C35.7,7.9,35.7,7.9,35.6,7.9z"/>
			<path class="st3" d="M35.4,8.4C35.4,8.3,35.4,8.3,35.4,8.4C35.4,8.3,35.4,8.3,35.4,8.4z"/>
			<path class="st3" d="M35.1,8.9c0,0,0.1-0.1,0.1-0.2C35.1,8.8,35.1,8.9,35.1,8.9z"/>
			<path class="st3" d="M35,9.1C35,9,35,9,35.1,8.9C35,9,35,9,35,9.1z"/>
			<path class="st3" d="M34.7,9.5C34.7,9.5,34.7,9.5,34.7,9.5C34.7,9.5,34.7,9.5,34.7,9.5z"/>
			<path class="st3" d="M34.5,10.1c0,0,0-0.1,0-0.2C34.5,10,34.5,10,34.5,10.1z"/>
			<path class="st3" d="M34.1,10.6c0.1-0.1,0.3-0.4,0.3-0.5C34.4,10.2,34.2,10.5,34.1,10.6z"/>
			<path class="st3" d="M34,10.8c0,0,0.1-0.1,0.1-0.2C34.1,10.6,34,10.7,34,10.8z"/>
			<path class="st3" d="M33.7,11.3c0-0.1,0.1-0.2,0.1-0.3C33.8,11.1,33.7,11.2,33.7,11.3z"/>
			<path class="st3" d="M33.5,11.7c0,0,0.1-0.1,0.1-0.2C33.6,11.6,33.5,11.7,33.5,11.7z"/>
			<path class="st3" d="M33.3,11.9c0,0,0.1-0.1,0.1-0.2C33.4,11.8,33.4,11.9,33.3,11.9z"/>
			<path class="st3" d="M33.1,12.3c0,0,0.1-0.1,0.1-0.2C33.2,12.2,33.1,12.3,33.1,12.3z"/>
			<path class="st3" d="M32.8,12.9c0-0.1,0.1-0.2,0.1-0.2C32.8,12.8,32.8,12.9,32.8,12.9z"/>
			<path class="st3" d="M32.5,13.4c0,0,0.1-0.1,0.1-0.2C32.6,13.2,32.6,13.3,32.5,13.4z"/>
			<path class="st3" d="M32.4,13.5l0.1-0.2L32.4,13.5z"/>
			<path class="st3" d="M32.1,14c0-0.1,0.1-0.2,0.2-0.3C32.2,13.8,32.1,14,32.1,14z"/>
			<path class="st3" d="M31.9,14.5c0,0,0.1-0.1,0.1-0.2C32,14.4,31.9,14.4,31.9,14.5z"/>
			<path class="st3" d="M31.6,15c0.1-0.1,0.2-0.4,0.3-0.5C31.8,14.6,31.7,14.9,31.6,15z"/>
			<path class="st3" d="M31.4,15.2c0,0,0.1-0.1,0.1-0.2C31.5,15.1,31.5,15.1,31.4,15.2z"/>
			<path class="st3" d="M31.2,15.6c0,0,0-0.1,0.1-0.1C31.3,15.5,31.2,15.6,31.2,15.6z"/>
			<path class="st3" d="M30.9,16.1c0,0,0-0.1,0.1-0.1C31,16,31,16.1,30.9,16.1z"/>
			<path class="st3" d="M30.6,16.7c0.1-0.1,0.2-0.4,0.3-0.6l0,0.3C30.9,16.5,30.7,16.6,30.6,16.7z"/>
			<path class="st3" d="M30.5,16.8c0,0,0.1-0.1,0.1-0.1C30.6,16.7,30.5,16.8,30.5,16.8z"/>
			<path class="st3" d="M30.2,17.4c0-0.1,0.1-0.3,0.2-0.4C30.4,17.1,30.3,17.3,30.2,17.4z"/>
			<path class="st3" d="M30,17.8c0,0,0.1-0.1,0.1-0.2C30.1,17.6,30,17.7,30,17.8z"/>
			<path class="st3" d="M29.9,18c0,0,0.1-0.1,0.1-0.2C29.9,17.8,29.9,17.9,29.9,18z"/>
			<path class="st3" d="M29.6,18.4c0,0,0.1-0.1,0.1-0.2C29.7,18.2,29.6,18.3,29.6,18.4z"/>
			<path class="st3" d="M29.3,18.9C29.3,18.8,29.3,18.8,29.3,18.9C29.3,18.8,29.3,18.8,29.3,18.9z"/>
			<path class="st3" d="M29.1,19.3l0.1-0.1L29.1,19.3z"/>
			<path class="st3" d="M28.6,20.1c0,0,0.1-0.1,0.1-0.1C28.7,20,28.6,20,28.6,20.1z"/>
			<path class="st3" d="M28.4,20.5c0,0,0.1-0.1,0.1-0.1C28.4,20.4,28.4,20.5,28.4,20.5z"/>
			<path class="st3" d="M28.1,21c0,0,0.1-0.1,0.1-0.2C28.2,20.9,28.1,21,28.1,21z"/>
			<path class="st3" d="M28,21.2c0,0,0.1-0.1,0.1-0.2C28.1,21.1,28,21.1,28,21.2z"/>
			<path class="st3" d="M27.7,21.6L27.7,21.6L27.7,21.6z"/>
			<path class="st3" d="M27.5,22.2c0,0,0-0.1,0-0.2C27.5,22.1,27.5,22.1,27.5,22.2z"/>
			<path class="st3" d="M27.1,22.7c0.1-0.1,0.3-0.4,0.3-0.5C27.4,22.3,27.2,22.6,27.1,22.7z"/>
			<path class="st3" d="M27,22.9c0,0,0.1-0.1,0.1-0.2C27.1,22.7,27,22.8,27,22.9z"/>
			<path class="st3" d="M26.8,23.3l0.1-0.1L26.8,23.3z"/>
			<path class="st3" d="M26.5,23.8c0,0,0.1-0.1,0.1-0.2C26.5,23.7,26.5,23.8,26.5,23.8z"/>
			<path class="st3" d="M26.4,24c0,0,0.1-0.1,0.1-0.1C26.4,23.9,26.4,23.9,26.4,24z"/>
			<path class="st3" d="M26.1,24.4C26.1,24.4,26.1,24.4,26.1,24.4C26.1,24.4,26.1,24.4,26.1,24.4z"/>
			<path class="st3" d="M25.8,24.9C25.8,24.9,25.9,24.8,25.8,24.9C25.9,24.8,25.8,24.9,25.8,24.9z"/>
			<path class="st3" d="M50.7,53.6c0-0.1,0.1-0.2,0.2-0.3C50.8,53.4,50.7,53.5,50.7,53.6z"/>
			<path class="st3" d="M50.6,53.8C50.6,53.8,50.6,53.7,50.6,53.8C50.6,53.7,50.6,53.8,50.6,53.8z"/>
			<path class="st3" d="M50.1,54.6c0,0,0.1-0.1,0.1-0.1C50.2,54.5,50.2,54.5,50.1,54.6z"/>
			<path class="st3" d="M49.9,55c0,0,0.1-0.1,0.1-0.1C50,54.9,49.9,55,49.9,55z"/>
			<path class="st3" d="M49.7,55.4C49.7,55.4,49.7,55.4,49.7,55.4C49.7,55.4,49.7,55.4,49.7,55.4z"/>
			<path class="st3" d="M49.3,56c0,0,0.1-0.1,0.1-0.1C49.4,55.9,49.4,55.9,49.3,56z"/>
			<path class="st3" d="M49.3,56.1c0,0,0.1-0.1,0.1-0.2C49.3,56,49.3,56.1,49.3,56.1z"/>
			<path class="st3" d="M48.9,56.7c0,0,0.1-0.1,0.1-0.1C49,56.6,49,56.6,48.9,56.7z"/>
			<path class="st3" d="M48.7,57.1c0,0,0.1-0.1,0.1-0.2C48.8,56.9,48.7,57,48.7,57.1z"/>
			<path class="st3" d="M48.3,57.8c0,0,0.1-0.1,0.1-0.1C48.3,57.7,48.3,57.8,48.3,57.8z"/>
			<path class="st3" d="M48,58.3c0,0,0.1-0.1,0.1-0.2C48.1,58.1,48,58.2,48,58.3z"/>
			<path class="st3" d="M47.6,59c0,0,0.1-0.1,0.1-0.1C47.6,58.9,47.6,59,47.6,59z"/>
			<path class="st3" d="M47.3,59.4c0,0,0-0.1,0.1-0.1C47.4,59.3,47.4,59.4,47.3,59.4z"/>
			<path class="st3" d="M47.1,59.9l0.1-0.1L47.1,59.9z"/>
			<path class="st3" d="M46.6,60.6c0,0,0.1-0.1,0.1-0.1C46.7,60.5,46.7,60.6,46.6,60.6z"/>
			<path class="st3" d="M46.4,61c0,0,0-0.1,0.1-0.1C46.5,61,46.4,61,46.4,61z"/>
			<path class="st3" d="M46.2,61.5c0,0,0.1-0.1,0.1-0.1C46.2,61.4,46.2,61.5,46.2,61.5z"/>
			<path class="st3" d="M45.7,62.3c0,0,0.1-0.1,0.1-0.1C45.8,62.2,45.7,62.2,45.7,62.3z"/>
			<path class="st3" d="M45.5,62.7c0,0,0.1-0.1,0.1-0.2C45.5,62.6,45.5,62.6,45.5,62.7z"/>
			<path class="st3" d="M45,63.4c0,0,0-0.1,0.1-0.1C45.1,63.3,45.1,63.4,45,63.4z"/>
			<path class="st3" d="M44.8,63.8c0,0,0-0.1,0.1-0.1C44.8,63.8,44.8,63.8,44.8,63.8z"/>
			<path class="st3" d="M44.5,64.3c0,0,0-0.1,0.1-0.1C44.6,64.2,44.6,64.3,44.5,64.3z"/>
			<path class="st3" d="M44.1,65.1c0,0,0.1-0.1,0.1-0.2C44.2,64.9,44.1,65,44.1,65.1z"/>
			<path class="st3" d="M43.9,65.4c0,0,0.1-0.1,0.1-0.1C43.9,65.3,43.9,65.4,43.9,65.4z"/>
			<path class="st3" d="M43.6,66c0,0,0.1-0.1,0.1-0.1C43.6,65.9,43.6,66,43.6,66z"/>
			<path class="st3" d="M43.5,66.1c0,0,0.1-0.1,0.1-0.1C43.5,66,43.5,66.1,43.5,66.1z"/>
		</g>
		<g id="_10985bff_1_">
			<path class="st4" d="M81.5,1.8c0,0,0.1,0.1,0.1,0.1C81.6,1.9,81.5,1.8,81.5,1.8z"/>
			<path class="st4" d="M83.4,5.1C83.4,5.1,83.4,5.1,83.4,5.1C83.4,5.1,83.4,5.1,83.4,5.1z"/>
			<path class="st4" d="M86.9,11.1C86.9,11.1,86.9,11.2,86.9,11.1C86.9,11.2,86.9,11.1,86.9,11.1z"/>
			<path class="st4" d="M87.6,12.3c0,0,0.1,0.1,0.1,0.1C87.6,12.4,87.6,12.3,87.6,12.3z"/>
			<path class="st4" d="M88.5,13.9C88.5,13.9,88.5,14,88.5,13.9C88.5,14,88.5,13.9,88.5,13.9z"/>
			<path class="st4" d="M89.4,15.5c0,0,0.1,0.1,0.1,0.1C89.5,15.6,89.4,15.5,89.4,15.5z"/>
			<path class="st4" d="M90.4,17.1c0,0,0.1,0.1,0.1,0.1C90.4,17.2,90.4,17.2,90.4,17.1z"/>
		</g>
		<g id="_f9c941ff_1_">
			<path class="st2" d="M98.8,35.6c0.1-0.4,0.1-0.8,0-1.2C98.9,34.8,98.9,35.2,98.8,35.6z"/>
			<path class="st5" d="M119.6,67.9l0.1,0l0.1,0.2l-0.1,0L119.6,67.9z"/>
		</g>
		<g id="_e3b73aff_1_">
			<path class="st6" d="M60.8,37.6c0,0,0.1,0.1,0.1,0.1C60.8,37.7,60.8,37.7,60.8,37.6z"/>
			<path class="st6" d="M61.2,38.4c0,0,0,0.1,0.1,0.1C61.2,38.5,61.2,38.4,61.2,38.4z"/>
			<path class="st6" d="M61.4,38.8C61.5,38.9,61.5,38.9,61.4,38.8C61.5,38.9,61.5,38.9,61.4,38.8z"/>
			<path class="st6" d="M61.7,39.3c0,0,0.1,0.1,0.1,0.1C61.8,39.4,61.7,39.4,61.7,39.3z"/>
			<path class="st6" d="M61.8,39.5c0,0,0.1,0.1,0.1,0.2C61.9,39.6,61.8,39.5,61.8,39.5z"/>
			<path class="st6" d="M62.1,40C62.1,40,62.2,40.1,62.1,40C62.2,40.1,62.1,40,62.1,40z"/>
			<path class="st6" d="M62.6,40.9c0,0,0.1,0.1,0.1,0.1C62.7,41,62.6,40.9,62.6,40.9z"/>
			<path class="st6" d="M63.1,41.6c0,0,0.1,0.1,0.1,0.1C63.1,41.7,63.1,41.7,63.1,41.6z"/>
			<path class="st6" d="M63.3,42.1c0,0.1,0.1,0.2,0.2,0.3C63.5,42.3,63.4,42.2,63.3,42.1z"/>
			<path class="st6" d="M63.6,42.5C63.6,42.6,63.6,42.6,63.6,42.5C63.6,42.6,63.6,42.6,63.6,42.5z"/>
			<path class="st6" d="M64,43.3c0,0.1,0.1,0.2,0.2,0.2C64.2,43.5,64.1,43.4,64,43.3z"/>
			<path class="st6" d="M64.3,43.7C64.3,43.7,64.3,43.8,64.3,43.7C64.3,43.8,64.3,43.7,64.3,43.7z"/>
			<path class="st6" d="M65,45c0,0.1,0.1,0.2,0.2,0.3C65.1,45.2,65,45,65,45z"/>
			<path class="st6" d="M65.2,45.3C65.2,45.3,65.3,45.4,65.2,45.3C65.3,45.4,65.2,45.3,65.2,45.3z"/>
			<path class="st6" d="M65.6,46.1c0,0,0.1,0.1,0.1,0.1C65.7,46.2,65.6,46.1,65.6,46.1z"/>
			<path class="st6" d="M65.9,46.5c0,0,0.1,0.1,0.1,0.2C65.9,46.6,65.9,46.5,65.9,46.5z"/>
			<path class="st6" d="M66.1,47c0,0,0.1,0.1,0.1,0.2C66.2,47.1,66.2,47,66.1,47z"/>
			<path class="st6" d="M66.2,47.1c0,0,0.1,0.1,0.1,0.1C66.3,47.3,66.3,47.2,66.2,47.1z"/>
			<path class="st6" d="M66.6,47.7C66.6,47.7,66.6,47.8,66.6,47.7C66.6,47.8,66.6,47.7,66.6,47.7z"/>
			<path class="st6" d="M66.8,48.2c0,0,0.1,0.1,0.1,0.1C66.9,48.3,66.8,48.2,66.8,48.2z"/>
			<path class="st6" d="M67,48.5c0,0,0.1,0.1,0.1,0.2C67.1,48.7,67.1,48.6,67,48.5z"/>
			<path class="st6" d="M67.5,49.4c0,0.1,0.1,0.2,0.2,0.3C67.7,49.6,67.6,49.4,67.5,49.4z"/>
			<path class="st6" d="M67.8,49.7C67.8,49.8,67.8,49.8,67.8,49.7C67.8,49.8,67.8,49.8,67.8,49.7z"/>
			<path class="st6" d="M68.2,50.5L68.2,50.5L68.2,50.5C68.3,50.5,68.2,50.5,68.2,50.5z"/>
			<path class="st6" d="M68.7,51.4c0,0,0.1,0.1,0.1,0.1C68.8,51.5,68.7,51.5,68.7,51.4z"/>
			<path class="st6" d="M68.8,51.6l0.1,0.2L68.8,51.6z"/>
			<path class="st6" d="M69.1,52.1C69.1,52.1,69.1,52.2,69.1,52.1C69.1,52.2,69.1,52.1,69.1,52.1z"/>
		</g>
		<g id="_e8b835ff_1_">
			<path class="st7" d="M110.9,52.7c0,0,0.1,0.1,0.1,0.1C111,52.8,110.9,52.8,110.9,52.7z"/>
			<path class="st7" d="M111.3,53.5c0,0,0.1,0.1,0.1,0.1C111.4,53.5,111.4,53.5,111.3,53.5z"/>
			<path class="st7" d="M111.6,53.9C111.6,53.9,111.6,54,111.6,53.9C111.6,54,111.6,53.9,111.6,53.9z"/>
			<path class="st7" d="M111.9,54.4c0,0,0.1,0.1,0.1,0.2C111.9,54.5,111.9,54.4,111.9,54.4z"/>
			<path class="st7" d="M112,54.5c0,0,0.1,0.1,0.1,0.1C112,54.7,112,54.6,112,54.5z"/>
			<path class="st7" d="M112.3,55.1L112.3,55.1L112.3,55.1z"/>
			<path class="st7" d="M112.6,55.5C112.6,55.6,112.6,55.6,112.6,55.5C112.6,55.6,112.6,55.6,112.6,55.5z"/>
			<path class="st7" d="M112.8,56c0,0,0.1,0.1,0.1,0.2C112.9,56.1,112.8,56,112.8,56z"/>
			<path class="st7" d="M112.9,56.2c0,0,0.1,0.1,0.1,0.2C113,56.3,112.9,56.2,112.9,56.2z"/>
			<path class="st7" d="M113.2,56.7c0,0.1,0.1,0.2,0.1,0.3C113.3,57,113.3,56.8,113.2,56.7z"/>
			<path class="st7" d="M113.4,57.2c0,0,0.1,0.1,0.1,0.1L113.4,57.2L113.4,57.2z"/>
			<path class="st7" d="M113.6,57.5c0,0.1,0.1,0.2,0.2,0.3C113.8,57.7,113.7,57.6,113.6,57.5z"/>
			<path class="st7" d="M113.8,57.8c0,0,0.1,0.1,0.1,0.2C113.9,58,113.9,57.9,113.8,57.8z"/>
			<path class="st7" d="M114.1,58.3c0,0.1,0.1,0.3,0.2,0.4C114.2,58.6,114.2,58.4,114.1,58.3z"/>
			<path class="st7" d="M114.4,58.8C114.4,58.8,114.4,58.9,114.4,58.8L114.4,58.8L114.4,58.8z"/>
			<path class="st7" d="M114.8,59.5c0,0,0.1,0.1,0.1,0.2C114.9,59.6,114.8,59.5,114.8,59.5z"/>
			<path class="st7" d="M115.1,59.9c0,0,0.1,0.1,0.1,0.1C115.1,60,115.1,59.9,115.1,59.9z"/>
			<path class="st7" d="M115.4,60.4l0.1,0.1L115.4,60.4z"/>
			<path class="st7" d="M115.5,60.6c0,0,0.1,0.1,0.1,0.1C115.5,60.7,115.5,60.6,115.5,60.6z"/>
			<path class="st7" d="M115.8,61.1C115.8,61.2,115.8,61.2,115.8,61.1C115.8,61.2,115.8,61.2,115.8,61.1z"/>
			<path class="st7" d="M116,61.6C116,61.6,116.1,61.7,116,61.6C116.1,61.7,116,61.6,116,61.6z"/>
			<path class="st7" d="M116.3,62.1c0,0,0.1,0.1,0.1,0.2C116.4,62.2,116.3,62.1,116.3,62.1z"/>
			<path class="st7" d="M116.4,62.2c0,0,0.1,0.1,0.1,0.1C116.5,62.3,116.4,62.3,116.4,62.2z"/>
			<path class="st2" d="M119.6,67.9v-0.2l-0.2-0.5c0,0,0,0,0-0.1l-0.2-0.4c0,0-0.1-0.1-0.1-0.1c0-0.1-0.1-0.1-0.1-0.2l-0.2-0.4
				c0,0,0,0,0-0.1l-0.2-0.4c0,0,0,0,0-0.1l-0.2-0.4c0,0-0.1-0.1-0.1-0.1l-0.1-0.2l-0.2-0.4c0,0-0.1-0.1-0.1-0.2l-0.2-0.2
				c0,0-0.1-0.1-0.1-0.2c0,0-0.1-0.2-0.1-0.2l-0.1-0.2c0,0-0.1-0.1-0.1-0.2c-0.2-0.3-0.3-0.6-0.5-0.9c0,0-0.1-0.1-0.1-0.1
				c0,0-0.1-0.1-0.1-0.2l-0.2-0.4c0,0,0-0.1-0.1-0.1l-0.2-0.4c0,0,0,0,0-0.1l-0.2-0.4c0,0-0.1-0.1-0.1-0.1l-0.1-0.1l-0.2-0.4
				c0,0-0.1-0.1-0.1-0.1l-0.1-0.2c0,0-0.1-0.1-0.1-0.2c-0.1-0.2-0.3-0.5-0.4-0.6l0,0l0,0l-0.1-0.1c0-0.1-0.1-0.3-0.2-0.4l-0.2-0.2
				c0,0-0.1-0.1-0.1-0.2c0-0.1-0.2-0.2-0.2-0.3l-0.1-0.2l0-0.1l0-0.1l-0.1-0.1c0-0.1-0.1-0.2-0.1-0.3l-0.2-0.4c0,0-0.1-0.1-0.1-0.2
				c0,0-0.1-0.1-0.1-0.1l-0.2-0.4c0,0,0,0,0-0.1l-0.2-0.4l0-0.1l-0.2-0.4c0,0-0.1-0.1-0.1-0.2c0,0-0.1-0.1-0.1-0.2l-0.2-0.4
				c0,0,0-0.1,0-0.1l-0.2-0.3c0,0-0.1-0.1-0.1-0.1c-0.1-0.2-0.3-0.5-0.4-0.6c0,0,0-0.1-0.1-0.1c-4-7-8.1-14-12.1-21
				c-2.8-4.8-5.5-9.6-8.3-14.4c0,0,0-0.1-0.1-0.1c-0.3-0.5-0.6-1-0.9-1.5c0,0,0-0.1-0.1-0.1c-0.3-0.5-0.6-1-0.9-1.5c0,0,0,0,0-0.1
				c-0.3-0.5-0.6-1-0.9-1.5c0,0,0-0.1-0.1-0.1c-0.2-0.4-0.4-0.7-0.6-1.1c0,0,0,0,0-0.1c-1.1-2-2.3-4-3.5-6c0,0,0-0.1,0-0.1
				C82.8,4,82.2,3,81.6,1.9c0,0,0-0.1-0.1-0.1c-0.1-0.2-0.3-0.5-0.4-0.7c-6.2-0.1-12.5,0-18.8,0c-7.6,0-15.1,0-22.7,0l0,0.1l0,0.1
				c0.5,0.7,0.9,1.3,1.3,2.1c6.5,11.2,12.9,22.4,19.4,33.6c0.1,0.2,0.3,0.5,0.4,0.7c0,0,0,0.1,0.1,0.1c0.1,0.2,0.3,0.5,0.4,0.6
				c0,0,0,0.1,0.1,0.1l0.2,0.3c0,0,0,0.1,0,0.1l0.2,0.4c0,0,0.1,0.1,0.1,0.1c0,0,0.1,0.1,0.1,0.2l0.2,0.4c0,0,0,0.1,0.1,0.1
				c0.1,0.3,0.3,0.5,0.5,0.8c0,0,0.1,0.1,0.1,0.1c0.1,0.2,0.3,0.5,0.4,0.6c0,0,0.1,0.1,0.1,0.1l0.2,0.3c0,0.1,0.1,0.2,0.2,0.3
				l0.1,0.1c0,0,0,0.1,0,0.1l0.4,0.7c0,0.1,0.1,0.2,0.2,0.2l0.1,0.1c0,0,0,0.1,0,0.1c0.2,0.4,0.4,0.8,0.7,1.2c0,0.1,0.1,0.2,0.2,0.3
				l0.1,0.1c0,0,0,0.1,0,0.1c0.1,0.2,0.3,0.5,0.4,0.7c0,0,0.1,0.1,0.1,0.1l0.2,0.3c0,0,0.1,0.1,0.1,0.2l0.2,0.3c0,0,0.1,0.1,0.1,0.2
				c0,0,0.1,0.1,0.1,0.2l0.2,0.4c0,0,0,0,0,0.1l0.2,0.4c0,0,0,0.1,0.1,0.1l0.2,0.2c0,0,0.1,0.1,0.1,0.2c0.1,0.2,0.3,0.5,0.4,0.7
				c0,0.1,0.1,0.2,0.2,0.3l0.1,0.1c0,0,0,0.1,0,0.1c0.1,0.2,0.3,0.5,0.4,0.6l0,0l0,0c0.1,0.3,0.3,0.6,0.5,0.9c0,0,0.1,0.1,0.1,0.1
				l0.1,0.1l0.2,0.4c0,0,0,0.1,0,0.1l0.1,0.3c3,5.2,6.1,10.4,9,15.7l0.1,0c7.2,0,14.3,0,21.5,0c6.5,0,13.1,0.1,19.6-0.1L119.6,67.9z
				 M98.8,35.6c0.1-0.4,0.1-0.8,0-1.2C98.9,34.8,98.9,35.2,98.8,35.6z"/>
			<path class="st7" d="M117,63.2c0,0,0.1,0.1,0.1,0.2C117,63.4,117,63.3,117,63.2z"/>
			<path class="st7" d="M117.2,63.7c0,0,0.1,0.1,0.1,0.2C117.3,63.8,117.2,63.7,117.2,63.7z"/>
			<path class="st7" d="M117.3,63.9c0,0,0.1,0.1,0.1,0.2C117.4,64,117.3,63.9,117.3,63.9z"/>
			<path class="st7" d="M117.6,64.3c0,0,0.1,0.1,0.1,0.2C117.7,64.4,117.6,64.3,117.6,64.3z"/>
			<path class="st7" d="M117.9,64.9L118,65L117.9,64.9z"/>
			<path class="st7" d="M118,65c0,0,0.1,0.1,0.1,0.1C118.1,65.1,118,65.1,118,65z"/>
			<path class="st7" d="M118.3,65.6C118.3,65.6,118.4,65.6,118.3,65.6C118.4,65.6,118.3,65.6,118.3,65.6z"/>
			<path class="st7" d="M118.6,66C118.6,66,118.6,66.1,118.6,66C118.6,66.1,118.6,66,118.6,66z"/>
			<path class="st7" d="M118.9,66.5c0,0,0.1,0.1,0.1,0.2C118.9,66.6,118.9,66.5,118.9,66.5z"/>
			<path class="st7" d="M119,66.6c0,0,0.1,0.1,0.1,0.2C119,66.8,119,66.7,119,66.6z"/>
			<path class="st7" d="M119.3,67.2C119.3,67.2,119.3,67.2,119.3,67.2C119.3,67.2,119.3,67.2,119.3,67.2z"/>
			<path class="st7" d="M119.6,67.7c0,0.1,0.1,0.2,0.1,0.2l-0.1,0L119.6,67.7z"/>
		</g>
		<g id="_296ad9ff_1_">
			<path class="st8" d="M21.6,103.9l0.1-0.1L21.6,103.9L21.6,103.9z"/>
		</g>
		<g id="_2a71e9ff_1_">
			<path class="st9" d="M119.8,68.1L119.8,68.1C112.9,80.1,106,92,99.1,104c-25.8,0-51.6,0-77.5,0l0-0.2c0.5-1.1,1.2-2.1,1.8-3.2
				c3.9-6.7,7.8-13.5,11.7-20.2c2.4-4.1,4.7-8.3,7.2-12.3c12,0,24-0.1,36,0l0.2,0c7.2,0,14.3,0,21.5,0c6.5,0,13.1,0.1,19.6-0.1
				L119.8,68.1L119.8,68.1z"/>
		</g>
		<g id="_286ee6ff_1_">
			<path class="st10" d="M38.6,88.3c0,0,0.1-0.1,0.1-0.1C38.7,88.3,38.6,88.3,38.6,88.3z"/>
			<path class="st10" d="M38.4,88.5c0.1,0,0.2-0.2,0.2-0.2C38.5,88.4,38.4,88.5,38.4,88.5z"/>
			<path class="st10" d="M38.2,88.6c0,0,0.1-0.1,0.1-0.1C38.3,88.6,38.3,88.6,38.2,88.6z"/>
			<path class="st10" d="M35.6,91.1c0,0,0.1-0.1,0.1-0.1C35.7,91,35.6,91.1,35.6,91.1z"/>
			<path class="st10" d="M35.5,91.2c0,0,0.1-0.1,0.1-0.1C35.6,91.1,35.5,91.2,35.5,91.2z"/>
		</g>
		
			<linearGradient id="SVGID_1_" gradientUnits="userSpaceOnUse" x1="31.9898" y1="20.0439" x2="61.3993" y2="3.0643" gradientTransform="matrix(1 0 0 -1 0 106)">
			<stop  offset="0" style="stop-color:#336FD6"/>
			<stop  offset="0.9971" style="stop-color:#508DF5;stop-opacity:0"/>
		</linearGradient>
		<polygon class="st11" points="42.3,68.1 60.8,104 21.7,103.8 		"/>
	</g>
</g>
</svg>
