<?xml version="1.0" encoding="utf-8"?>
<!-- Generator: Adobe Illustrator 23.0.2, SVG Export Plug-In . SVG Version: 6.00 Build 0)  -->
<svg version="1.1" id="Layer_1" xmlns="http://www.w3.org/2000/svg" xmlns:xlink="http://www.w3.org/1999/xlink" x="0px" y="0px"
	 viewBox="0 0 1013 256.5" style="enable-background:new 0 0 1013 256.5;" xml:space="preserve">
<style type="text/css">
	.st0{fill:#FFFFFF;}
	.st1{fill:#E01E5A;}
	.st2{fill:#36C5F0;}
	.st3{fill:#2EB67D;}
	.st4{fill:#ECB22E;}
</style>
<g>
	<g>
		<path class="st0" d="M324,201.9l12.6-29.3c13.8,10.2,31.7,15.6,49.7,15.6c13.2,0,21.6-5.1,21.6-12.9c-0.3-21.6-79.3-4.8-79.9-59
			c-0.3-27.5,24.2-48.8,59-48.8c20.7,0,41.3,5.1,56,16.8l-11.8,30c-13.5-8.7-30.2-14.7-46-14.7c-10.8,0-18,5.1-18,11.7
			c0.3,21.3,79.9,9.6,80.8,61.4c0,28.1-24,47.9-58.1,47.9C364.7,220.5,341.7,214.5,324,201.9"/>
		<path class="st0" d="M809.6,162c-6.3,11.1-18.2,18.6-31.8,18.6c-20.2,0-36.5-16.4-36.5-36.5s16.3-36.5,36.5-36.5
			c13.6,0,25.5,7.5,31.8,18.6l35-19.4c-13.1-23.4-38.1-39.2-66.8-39.2c-42.2,0-76.5,34.2-76.5,76.5s34.2,76.5,76.5,76.5
			c28.7,0,53.7-15.8,66.8-39.2L809.6,162z"/>
		<rect x="465.6" y="3.8" class="st0" width="43.7" height="213.7"/>
		<polygon class="st0" points="861.6,3.8 861.6,217.5 905.3,217.5 905.3,153.5 957.1,217.5 1013,217.5 947.1,141.5 1008.2,70.5 
			954.7,70.5 905.3,129.5 905.3,3.8 		"/>
		<path class="st0" d="M638.9,162.3c-6.3,10.5-19.5,18.3-34.1,18.3c-20.2,0-36.5-16.4-36.5-36.5s16.4-36.5,36.5-36.5
			c14.7,0,27.8,8.1,34.1,18.9L638.9,162.3L638.9,162.3z M638.9,70.5v17.4c-7.2-12-24.8-20.4-43.4-20.4c-38.3,0-68.6,33.8-68.6,76.4
			s30.2,76.6,68.6,76.6c18.6,0,36.2-8.4,43.4-20.4v17.4h43.7v-147H638.9z"/>
	</g>
	<g>
		<path class="st1" d="M54,162c0,14.9-12.1,27-27,27S0,176.9,0,162s12.1-27,27-27h27V162z"/>
		<path class="st1" d="M67.5,162c0-14.9,12.1-27,27-27s27,12.1,27,27v67.5c0,14.9-12.1,27-27,27s-27-12.1-27-27V162z"/>
	</g>
	<g>
		<path class="st2" d="M94.5,54c-14.9,0-27-12.1-27-27s12.1-27,27-27s27,12.1,27,27v27H94.5z"/>
		<path class="st2" d="M94.5,67.5c14.9,0,27,12.1,27,27s-12.1,27-27,27H27c-14.9,0-27-12.1-27-27s12.1-27,27-27H94.5z"/>
	</g>
	<g>
		<path class="st3" d="M202.5,94.5c0-14.9,12.1-27,27-27s27,12.1,27,27s-12.1,27-27,27h-27V94.5z"/>
		<path class="st3" d="M189,94.5c0,14.9-12.1,27-27,27s-27-12.1-27-27V27c0-14.9,12.1-27,27-27s27,12.1,27,27V94.5z"/>
	</g>
	<g>
		<path class="st4" d="M162,202.5c14.9,0,27,12.1,27,27s-12.1,27-27,27s-27-12.1-27-27v-27H162z"/>
		<path class="st4" d="M162,189c-14.9,0-27-12.1-27-27s12.1-27,27-27h67.5c14.9,0,27,12.1,27,27s-12.1,27-27,27H162z"/>
	</g>
</g>
</svg>
