<?xml version="1.0" encoding="utf-8"?>
<!-- Generator: Adobe Illustrator 20.1.0, SVG Export Plug-In . SVG Version: 6.00 Build 0)  -->
<svg version="1.1" id="Layer_1" xmlns="http://www.w3.org/2000/svg" xmlns:xlink="http://www.w3.org/1999/xlink" x="0px" y="0px"
	 viewBox="0 136 500 229" style="enable-background:new 0 136 500 229;" xml:space="preserve">
<style type="text/css">
	.st0{fill:#FF4A00;}
</style>
<path class="st0" d="M300,235.6h-12.5c-0.3-1-0.4-2.2-0.6-3.5c-0.3-2.6-0.3-5.2,0-7.9c0.1-1.3,0.3-2.5,0.6-3.5h31.1V319
	c-1.6,0.3-3.1,0.5-4.7,0.6c-1.6,0.1-3.1,0.2-4.7,0.2c-1.5,0-3-0.1-4.5-0.2c-1.6-0.1-3.1-0.3-4.7-0.6L300,235.6L300,235.6L300,235.6z
	 M408.2,260.3c0-3.6-0.5-7-1.4-10.3c-1-3.3-2.4-6.1-4.2-8.5c-1.9-2.4-4.2-4.4-7.1-5.8c-2.9-1.5-6.3-2.2-10.3-2.2
	c-7.8,0-13.8,2.4-17.9,7.1c-4.2,4.7-6.7,11.3-7.6,19.7H408.2L408.2,260.3z M359.5,274.5c0.3,10.7,3,18.6,8.3,23.6
	c5.3,5,13.1,7.5,23.5,7.5c9.1,0,17.7-1.6,25.9-4.8c1,1.9,1.9,4.2,2.5,7c0.6,2.7,1,5.4,1.1,8.1c-4.2,1.8-8.9,3.1-13.9,4
	c-5.1,0.9-10.6,1.3-16.8,1.3c-9,0-16.6-1.2-23-3.7c-6.4-2.5-11.7-6-15.8-10.5c-4.2-4.5-7.2-9.9-9.1-16.1c-1.9-6.2-2.9-13-2.9-20.4
	c0-7.3,0.9-14.1,2.8-20.4c1.9-6.3,4.7-11.8,8.5-16.5c3.8-4.7,8.7-8.4,14.5-11.1c5.8-2.7,12.7-4.1,20.6-4.1c6.8,0,12.7,1.2,17.8,3.5
	c5.1,2.3,9.4,5.5,12.8,9.5c3.5,4,6.1,8.8,7.9,14.4c1.8,5.6,2.7,11.6,2.7,18.1c0,1.8-0.1,3.7-0.2,5.7c-0.1,1.7-0.2,3.4-0.4,5.1
	L359.5,274.5L359.5,274.5L359.5,274.5z M447.9,220.6c1.3-0.2,2.7-0.4,4-0.6c1.3-0.1,2.6-0.2,4-0.2s2.8,0.1,4.2,0.2
	c1.4,0.1,2.7,0.3,3.8,0.6c0.4,1.9,0.8,4.4,1.1,7.6c0.4,3.1,0.6,5.8,0.6,8c2.7-4.3,6.2-8.1,10.6-11.3c4.4-3.2,10.1-4.8,17-4.8
	c1,0,2.1,0,3.2,0.1c0.9,0.1,1.9,0.1,2.8,0.3c0.3,1.2,0.5,2.4,0.6,3.6c0.1,1.3,0.2,2.6,0.2,4c0,1.5-0.1,3.1-0.3,4.8
	c-0.2,1.6-0.4,3.2-0.7,4.8c-1-0.3-2.1-0.4-3.2-0.4h-2.6c-3.5,0-6.7,0.5-9.9,1.4c-3.1,1-5.9,2.7-8.4,5.1c-2.5,2.4-4.5,5.8-5.9,10
	c-1.5,4.2-2.2,9.6-2.2,16.3V319c-1.6,0.3-3.1,0.5-4.7,0.6c-1.7,0.1-3.3,0.2-4.7,0.2c-1.6,0-3.1-0.1-4.7-0.2
	c-1.6-0.1-3.3-0.3-4.9-0.6L447.9,220.6L447.9,220.6z M313.3,168.1c0,2.3-0.4,4.6-1.2,6.7c-2.1,0.8-4.4,1.2-6.7,1.2h0
	c-2.3,0-4.6-0.4-6.7-1.2c-0.8-2.1-1.2-4.4-1.2-6.7v0c0-2.4,0.4-4.6,1.2-6.7c2.1-0.8,4.4-1.2,6.7-1.2h0c2.4,0,4.6,0.4,6.7,1.2
	C312.9,163.5,313.3,165.8,313.3,168.1L313.3,168.1L313.3,168.1L313.3,168.1z M336.7,162.8h-18.6l13.1-13.1c-2.1-2.9-4.6-5.4-7.5-7.5
	l-13.1,13.1v-18.6c-1.7-0.3-3.5-0.4-5.3-0.4h0c-1.8,0-3.6,0.2-5.3,0.4v18.6l-13.1-13.1c-1.4,1-2.8,2.2-4.1,3.4l0,0
	c-1.3,1.3-2.4,2.6-3.4,4.1l13.1,13.1H274c0,0-0.4,3.5-0.4,5.3v0c0,1.8,0.2,3.6,0.4,5.3h18.6l-13.1,13.1c2.1,2.9,4.6,5.4,7.5,7.5
	l13.1-13.1v18.6c1.7,0.3,3.5,0.4,5.3,0.4h0c1.8,0,3.5-0.1,5.3-0.4v-18.6l13.1,13.1c1.4-1,2.8-2.2,4.1-3.4h0c1.3-1.3,2.4-2.6,3.4-4.1
	l-13.1-13.1h18.6c0.3-1.7,0.4-3.5,0.4-5.3v0C337.2,166.3,337,164.5,336.7,162.8L336.7,162.8L336.7,162.8z M0,316.3l51.8-80.5H6.1
	c-0.4-2.3-0.6-4.9-0.6-7.7c0-2.7,0.2-5.2,0.6-7.5h73.8l1,2.5l-52.1,80.7h48.9c0.4,2.6,0.6,5.2,0.6,7.9c0,2.6-0.2,5-0.6,7.3H1
	L0,316.3L0,316.3z M149.3,272.8c-1.9-0.3-4.3-0.5-7.3-0.8c-2.9-0.3-5.4-0.4-7.5-0.4c-7.9,0-14,1.5-18.1,4.4
	c-4.2,2.9-6.2,7.4-6.2,13.4c0,3.8,0.7,6.8,2.1,9c1.4,2.2,3.2,3.8,5.3,5c2.1,1.1,4.4,1.9,7,2.1c2.6,0.3,5,0.4,7.3,0.4
	c2.9,0,6-0.2,9.1-0.5c3.1-0.3,5.9-0.8,8.3-1.4L149.3,272.8L149.3,272.8z M149.3,254.2c0-7.5-1.9-12.8-5.8-15.7
	c-3.8-2.9-9.4-4.4-16.7-4.4c-4.5,0-8.7,0.4-12.6,1.1c-3.9,0.7-7.7,1.6-11.4,2.8c-2.4-4.2-3.6-9.3-3.6-15.1c4.3-1.4,9.1-2.5,14.4-3.3
	c5.2-0.8,10.3-1.2,15.1-1.2c12.8,0,22.5,2.9,29.1,8.7c6.6,5.8,10,15.1,10,27.9v61.5c-4.5,1-9.9,2.1-16.3,3.2
	c-6.5,1.1-13,1.6-19.6,1.6c-6.3,0-11.9-0.6-17-1.7c-5.1-1.2-9.3-3-12.8-5.6c-3.5-2.6-6.2-5.8-8.2-9.8c-1.9-4-2.9-8.8-2.9-14.4
	c0-5.5,1.1-10.3,3.4-14.5c2.2-4.1,5.3-7.6,9.1-10.4c3.8-2.7,8.2-4.8,13.2-6.1c5-1.3,10.2-2,15.7-2c4.1,0,7.4,0.1,10.1,0.3
	c2.6,0.2,4.8,0.4,6.6,0.7L149.3,254.2L149.3,254.2z M207.6,302.9c2.4,0.9,4.9,1.5,7.5,1.9c2.6,0.4,5.9,0.6,10,0.6
	c4.6,0,8.8-0.7,12.6-2.2c3.8-1.5,7.1-3.7,9.9-6.8c2.7-3.1,4.9-6.9,6.5-11.6c1.6-4.7,2.4-10.2,2.4-16.6c0-10.2-1.9-18.3-5.7-24.3
	c-3.8-6-9.9-9-18.5-9c-3.2,0-6.3,0.6-9.2,1.7c-2.9,1.1-5.6,2.9-7.9,5.2c-2.3,2.3-4.2,5.2-5.6,8.7c-1.4,3.5-2.1,7.7-2.1,12.6
	L207.6,302.9L207.6,302.9L207.6,302.9z M188.6,220.6c1.3-0.3,2.6-0.4,3.9-0.6c1.4-0.1,2.7-0.2,4.1-0.2c1.3,0,2.6,0.1,4,0.2
	c1.4,0.1,2.7,0.3,4,0.6c0.1,0.3,0.3,1.1,0.5,2.4c0.2,1.3,0.4,2.8,0.6,4.3c0.2,1.5,0.4,3,0.6,4.4c0.2,1.4,0.3,2.3,0.3,2.7
	c1.3-2,2.8-4,4.6-5.9c1.8-1.9,3.9-3.6,6.4-5.2c2.5-1.5,5.3-2.7,8.4-3.6c3.1-0.9,6.6-1.3,10.4-1.3c5.8,0,11.1,1,16,2.9
	c4.9,1.9,9.1,4.9,12.7,8.9c3.5,4,6.3,9.1,8.2,15.3c2,6.2,3,13.5,3,22c0,16.9-4.6,30.1-13.7,39.6c-9.1,9.5-22.1,14.3-38.8,14.3
	c-2.8,0-5.7-0.2-8.6-0.6c-2.9-0.4-5.5-0.9-7.7-1.5v45.1c-1.6,0.3-3.2,0.5-4.9,0.6c-1.7,0.1-3.3,0.2-4.7,0.2c-1.6,0-3.1-0.1-4.7-0.2
	c-1.6-0.1-3.1-0.3-4.7-0.6L188.6,220.6L188.6,220.6z"/>
</svg>
